<?xml version="1.0" encoding="UTF-8" standalone="no"?>
<!-- Generator: Adobe Illustrator 16.0.0, SVG Export Plug-In . SVG Version: 6.00 Build 0)  -->

<svg
   xmlns:dc="http://purl.org/dc/elements/1.1/"
   xmlns:cc="http://creativecommons.org/ns#"
   xmlns:rdf="http://www.w3.org/1999/02/22-rdf-syntax-ns#"
   xmlns:svg="http://www.w3.org/2000/svg"
   xmlns="http://www.w3.org/2000/svg"
   xmlns:sodipodi="http://sodipodi.sourceforge.net/DTD/sodipodi-0.dtd"
   xmlns:inkscape="http://www.inkscape.org/namespaces/inkscape"
   version="1.1"
   id="Capa_1"
   x="0px"
   y="0px"
   width="90px"
   height="90px"
   viewBox="0 0 90 90"
   style="enable-background:new 0 0 90 90;"
   xml:space="preserve"
   sodipodi:docname="steam-logo.svg"
   inkscape:version="0.92.2 5c3e80d, 2017-08-06"><metadata
     id="metadata3936"><rdf:RDF><cc:Work
         rdf:about=""><dc:format>image/svg+xml</dc:format><dc:type
           rdf:resource="http://purl.org/dc/dcmitype/StillImage" /></cc:Work></rdf:RDF></metadata><defs
     id="defs3934" /><sodipodi:namedview
     pagecolor="#ffffff"
     bordercolor="#666666"
     borderopacity="1"
     objecttolerance="10"
     gridtolerance="10"
     guidetolerance="10"
     inkscape:pageopacity="0"
     inkscape:pageshadow="2"
     inkscape:window-width="1366"
     inkscape:window-height="730"
     id="namedview3932"
     showgrid="false"
     inkscape:zoom="2.6222222"
     inkscape:cx="-26.122881"
     inkscape:cy="45"
     inkscape:window-x="0"
     inkscape:window-y="38"
     inkscape:window-maximized="0"
     inkscape:current-layer="g3899" /><g
     id="g3899"><path
       id="Steam"
       d="M83.266,33.541c0,4.582-3.729,8.298-8.328,8.298c-4.604,0-8.33-3.716-8.33-8.298s3.728-8.297,8.33-8.297   C79.537,25.244,83.266,28.959,83.266,33.541z M79.91,47.561l-10.086,8.594c0.109,0.686,0.183,1.383,0.183,2.098   c0,7.316-5.954,13.248-13.296,13.248c-6.334,0-11.623-4.414-12.963-10.32l-24.931-8.427c-1.97,1.49-4.419,2.386-7.083,2.386   C5.254,55.139,0,49.903,0,43.447c0-6.455,5.254-11.688,11.734-11.688c5.572,0,10.226,3.87,11.427,9.055l24.083,8.141   c2.346-2.369,5.581-3.854,9.166-3.934l3.607-10.924c-0.011-0.217-0.033-0.431-0.033-0.65c0-8.255,6.72-14.947,15.008-14.947   C83.279,18.5,90,25.192,90,33.447C90,39.987,85.779,45.531,79.91,47.561z M19.112,39.446c-1.402-2.514-4.093-4.217-7.184-4.217   c-4.538,0-8.217,3.665-8.217,8.185c0,4.52,3.679,8.184,8.217,8.184c0.839,0,1.647-0.125,2.409-0.358l-3.904-1.319   c-3.146-1.678-4.33-5.579-2.645-8.713c1.686-3.132,5.602-4.31,8.745-2.632L19.112,39.446z M63.288,33.483   c0,6.412,5.218,11.61,11.655,11.61c6.437,0,11.658-5.198,11.658-11.61c0-6.415-5.222-11.613-11.658-11.613   C68.506,21.87,63.288,27.068,63.288,33.483z M63.518,59.389c0-4.881-3.973-8.84-8.873-8.84c-0.688,0-1.352,0.086-1.994,0.232   l4.959,1.676c3.145,1.68,4.326,5.58,2.642,8.711c-1.685,3.137-5.601,4.312-8.744,2.635l-5.344-1.807   c1.116,3.609,4.491,6.232,8.481,6.232C59.545,68.229,63.518,64.27,63.518,59.389z"
       style="fill:#dd77dd;fill-opacity:1" /></g><g
     id="g3901" /><g
     id="g3903" /><g
     id="g3905" /><g
     id="g3907" /><g
     id="g3909" /><g
     id="g3911" /><g
     id="g3913" /><g
     id="g3915" /><g
     id="g3917" /><g
     id="g3919" /><g
     id="g3921" /><g
     id="g3923" /><g
     id="g3925" /><g
     id="g3927" /><g
     id="g3929" /></svg>